<svg id="Layer_1" data-name="Layer 1" xmlns="http://www.w3.org/2000/svg" height="90px" width="220px" viewBox="0 0 360.4 144.63"><defs><style>.cls-1{fill:#ee7c15}.cls-2{fill:#585858}</style></defs><path class="cls-1" d="M159.85 95.69a4.21 4.21 0 0 1-3-1.22c-1.09-1.09-1.11-2.15-1.11-4.85s0-3.76 1.11-4.85a4.21 4.21 0 0 1 3-1.23 4 4 0 0 1 4.06 3.46H163a3.2 3.2 0 0 0-5.4-1.76c-.86.86-.92 1.78-.92 4.35s.07 3.49.92 4.35a3.22 3.22 0 0 0 5.4-1.74h.89a4 4 0 0 1-4.04 3.49zM174.18 95.59V85.12l-6.58 10.47h-.91V83.64h.91v10.44l6.58-10.44h.91v11.95zM182.07 95.69a4.21 4.21 0 0 1-3-1.22C178 93.38 178 92.32 178 89.62s0-3.76 1.11-4.85a4.21 4.21 0 0 1 3-1.23 4 4 0 0 1 4.02 3.46h-.92a3.2 3.2 0 0 0-5.4-1.76c-.86.86-.92 1.78-.92 4.35s.07 3.49.92 4.35a3.22 3.22 0 0 0 5.44-1.76h.89a4 4 0 0 1-4.07 3.51zM191.87 84.45v11.14H191V84.45h-3.56v-.81h8v.81zM197.46 95.59V83.64h7.25v.81h-6.34v4.72h5.4V90h-5.4v4.82h6.34v.81zM216.29 95.59v-9.85l-3.62 8.17h-.91l-3.69-8.17v9.85h-.91V83.64h.91l4.16 9.21 4.06-9.21h.91v11.95zM225 95.59h-4.41V83.64h.91v5.07h3.5a3.44 3.44 0 1 1 0 6.88zm-.1-6.07h-3.41v5.27h3.41a2.64 2.64 0 1 0 0-5.27zm5.42 6.07V83.64h.91v11.95zM242.91 95.59h-4.41V83.64h7.28v.81h-6.38v4.26h3.51a3.44 3.44 0 1 1 0 6.88zm-.1-6.07h-3.41v5.27h3.41a2.64 2.64 0 1 0 0-5.27zM249.18 95.59V83.64h7.25v.81h-6.34v4.72h5.4V90h-5.4v4.82h6.34v.81zM258.21 92.2h.89a3.17 3.17 0 0 0 3.17 2.68 2.6 2.6 0 0 0 2.89-2.55c0-1.66-1-2.45-2.65-2.45H261v-.81h1.54a2.18 2.18 0 0 0 2.4-2.4c0-1.51-1.06-2.33-2.67-2.33a3.14 3.14 0 0 0-3.12 2.66h-.92a4 4 0 0 1 4.06-3.49c2.06 0 3.57 1.21 3.57 3.12a2.74 2.74 0 0 1-1.8 2.77 2.79 2.79 0 0 1 2 2.94c0 2-1.7 3.32-3.89 3.32a3.94 3.94 0 0 1-3.96-3.46zM276.67 89.62c0 2.89-.12 3.86-1.11 4.85a4.26 4.26 0 0 1-6 0c-1-1-1.11-2.2-1.11-4.85v-.79c0-1.78.07-3 1.11-4.06a4.25 4.25 0 0 1 6 0c1 1 1.11 2.37 1.11 3.83zm-.91-.29c0-2.55-.17-3.31-.92-4.06a3.24 3.24 0 0 0-4.53 0c-.84.84-.92 1.91-.92 4.35v.52c0 2.28.18 3.09.92 3.83a3.24 3.24 0 0 0 4.53 0c.91-.91.92-2.15.92-4zM286.69 95.59V84.45h-6.23v11.14h-.91V83.64h8v11.95zM298 95.59l-1-2.9h-5.57l-1 2.9h-1l4.4-11.95h.81l4.4 11.95zm-3.83-10.74l-2.5 7h5zM304.15 95.69a4.21 4.21 0 0 1-3-1.22c-1.09-1.09-1.11-2.15-1.11-4.85s0-3.76 1.11-4.85a4.21 4.21 0 0 1 3-1.23 4 4 0 0 1 4.06 3.46h-.92a3.14 3.14 0 0 0-3.14-2.69 3.17 3.17 0 0 0-2.27.92c-.86.86-.92 1.78-.92 4.35s.07 3.49.92 4.35a3.22 3.22 0 0 0 5.44-1.76h.89a4 4 0 0 1-4.06 3.52zM318.13 95.59V90h-6.23v5.62h-.9V83.64h.91v5.52h6.23v-5.52h.86v11.95zM330.11 89.62c0 2.89-.12 3.86-1.11 4.85a4.26 4.26 0 0 1-6 0c-1-1-1.11-2.2-1.11-4.85v-.79c0-1.78.07-3 1.11-4.06a4.25 4.25 0 0 1 6 0c1 1 1.11 2.37 1.11 3.83zm-.91-.29c0-2.55-.17-3.31-.92-4.06a3.24 3.24 0 0 0-4.53 0c-.84.84-.92 1.91-.92 4.35v.52c0 2.28.18 3.09.92 3.83a3.24 3.24 0 0 0 4.53 0c.91-.91.92-2.15.92-4zM336.62 95.69a4.21 4.21 0 0 1-3-1.22c-1.09-1.09-1.11-2.15-1.11-4.85s0-3.76 1.11-4.85a4.21 4.21 0 0 1 3-1.23 4 4 0 0 1 4.06 3.46h-.92a3.14 3.14 0 0 0-3.14-2.69 3.17 3.17 0 0 0-2.27.92c-.86.86-.92 1.78-.92 4.35s.07 3.49.92 4.35a3.22 3.22 0 0 0 5.44-1.76h.89a4 4 0 0 1-4.06 3.52zM346.42 84.45v11.14h-.91V84.45H342v-.81h8v.81zM359.5 95.59V85.12l-6.58 10.47H352V83.64h.91v10.44l6.58-10.44h.91v11.95z"/><path class="cls-2" d="M166.82 75.56v-1.74c-1.6 1.6-2.85 1.94-5.13 1.94-4.3 0-6.69-2.09-6.69-5.82 0-3.5 2.51-5.59 6.62-5.59h5.17v-1.41c0-2.51-1.29-3.58-4.33-3.58a5.58 5.58 0 0 0-2.59.5 4.2 4.2 0 0 0-1.56 1.37l-2.55-2.4a7 7 0 0 1 2.51-2 9.79 9.79 0 0 1 4.3-.76c5.36 0 8.06 2.24 8.06 6.62v12.87zm0-8.48h-4.56c-2.28 0-3.46.91-3.46 2.74s1.18 2.74 3.8 2.74c3 0 4.22-1.14 4.22-4zM189.61 75.56V63.2l-4.45 8.8h-2.44l-4.52-8.8v12.36h-3.88V56.28h3.84l5.78 11.49 5.75-11.49h3.8v19.28zM209.54 75.56V62.29l-8.26 13.27h-3.88V56.28h3.88v13.08l8.26-13.08h3.88v19.28zM217.38 75.56V56.28h3.92v9.2l7.34-9.2h4.64l-7.68 9.05 8.25 10.23h-4.75l-7.8-10v10z"/><path class="cls-2" d="M246.78 73.51a7.88 7.88 0 0 1-5.78 2.28 7.8 7.8 0 0 1-5.74-2.28c-1.64-1.71-2.28-3.8-2.28-7.61s.65-5.86 2.28-7.57a7.8 7.8 0 0 1 5.74-2.28 7.88 7.88 0 0 1 5.78 2.28c1.6 1.67 2.24 3.8 2.24 7.49-.02 3.89-.6 5.98-2.24 7.69zM244 60.77a3.85 3.85 0 0 0-3-1.25 3.75 3.75 0 0 0-3 1.29c-1 1.18-1.18 3-1.18 5.25 0 2.55.38 4.07 1.25 5.06a3.65 3.65 0 0 0 2.93 1.21 3.84 3.84 0 0 0 3-1.33c.91-1.1 1.18-2.82 1.18-5.06.01-2.36-.18-4.07-1.18-5.17zM267.33 75.56V63.2l-4.46 8.8h-2.43l-4.52-8.82v12.38H252V56.28h3.84l5.78 11.49 5.74-11.49h3.8v19.28z"/><path class="cls-1" d="M110.89 24.91a63.34 63.34 0 0 0-19.1-12.18A64.17 64.17 0 0 0 69.39 8a64.6 64.6 0 0 0-43.25 14.94A67.39 67.39 0 0 0 11 41a66.55 66.55 0 0 0-8 22.49 67.73 67.73 0 0 0 9.43 46.68 68.21 68.21 0 0 1-10.24-22.3 70 70 0 0 1 5.25-48.74 72 72 0 0 1 15.19-20.2A70.51 70.51 0 0 1 44.17 5.25 72.61 72.61 0 0 1 95.06 4a73.33 73.33 0 0 1 22.85 12.9 5.33 5.33 0 1 1-6.81 8.19z"/><path class="cls-2" d="M24.84 116.91a63.56 63.56 0 0 0 42.63 19.74A64.76 64.76 0 0 0 113 121.49a66.07 66.07 0 0 0 23.17-43.11 67.64 67.64 0 0 0-12.95-48.22 68.19 68.19 0 0 1 12.4 22.62 69.84 69.84 0 0 1-3.39 51.29 71.19 71.19 0 0 1-38.37 35.66 72.56 72.56 0 0 1-53.36-.37 73.58 73.58 0 0 1-23.15-14.93 5.33 5.33 0 0 1 7.34-7.72z"/><circle class="cls-1" cx="113.86" cy="48.11" r="4.37"/><path class="cls-2" d="M45.78 62.44a9.87 9.87 0 0 0-3.38-3.82 14.19 14.19 0 0 0-5-2 29.44 29.44 0 0 0-5.94-.58 20.8 20.8 0 0 0-7.38 1.29 13.65 13.65 0 0 0-5.6 3.78 1.62 1.62 0 0 1-.12.15 2.74 2.74 0 0 0 .31 3.83 2.74 2.74 0 0 0 3.83.31 9.11 9.11 0 0 1 3.5-2.45 15.08 15.08 0 0 1 5.77-.9q4.68 0 6.78 1.56a5.53 5.53 0 0 1 2.1 4.75v4.36H28.48a14.31 14.31 0 0 0-5.42.94 11.07 11.07 0 0 0-3.82 2.49 10.42 10.42 0 0 0-2.3 3.63 12.15 12.15 0 0 0-.78 4.33 10.64 10.64 0 0 0 3.55 8.22q3.55 3.24 10.17 3.24a18.74 18.74 0 0 0 6.78-1.09 7.75 7.75 0 0 0 3.9-2.81l.08.08V93A3.26 3.26 0 0 0 47 93V68.52a13.25 13.25 0 0 0-1.22-6.08zm-6 23.66a6.51 6.51 0 0 1-2.26 2.18 9.51 9.51 0 0 1-3.2 1.13 21.18 21.18 0 0 1-3.66.31q-4.29 0-6.35-1.64a5.28 5.28 0 0 1-2.07-4.36 4.9 4.9 0 0 1 2-4.21A9.65 9.65 0 0 1 30 78h10.6v4.52a6.58 6.58 0 0 1-.82 3.58z"/><path class="cls-1" d="M105 69.38a15 15 0 0 0-1-5.69 11.58 11.58 0 0 0-2.81-4.17A12.44 12.44 0 0 0 97 56.95a14.92 14.92 0 0 0-5.22-.9 17.71 17.71 0 0 0-6.9 1.29A16.71 16.71 0 0 0 79 61.58q-.08-.08-.08 0a15.37 15.37 0 0 0-4.75-4.05 15 15 0 0 0-12.67-.16 12.94 12.94 0 0 0-4.79 3.82h-.21v-2.43a3.24 3.24 0 0 0-6.39 0V93a3.26 3.26 0 0 0 6.35 0V72A9.89 9.89 0 0 1 59 64.86a8.44 8.44 0 0 1 6.42-2.65q5 0 7 2.65a11.68 11.68 0 0 1 2 7.09V93a3.26 3.26 0 0 0 6.35 0V72a9.89 9.89 0 0 1 2.51-7.09 8.44 8.44 0 0 1 6.42-2.65q5 0 7 2.65a11.67 11.67 0 0 1 2 7.09v21a3.26 3.26 0 0 0 6.3 0z"/><path class="cls-2" d="M117 56.88a6.46 6.46 0 0 1-6.39-.1V93a3.26 3.26 0 0 0 6.35 0z"/></svg>