<?xml version="1.0" encoding="UTF-8" standalone="no"?>
<!-- Created with Inkscape (http://www.inkscape.org/) -->

<svg
   version="1.1"
   id="svg245"
   width="50"
   height="50"
   viewBox="0 0 50.000001 50.000001"
   sodipodi:docname="03d.svg"
   inkscape:version="1.2.1 (9c6d41e410, 2022-07-14)"
   xmlns:inkscape="http://www.inkscape.org/namespaces/inkscape"
   xmlns:sodipodi="http://sodipodi.sourceforge.net/DTD/sodipodi-0.dtd"
   xmlns="http://www.w3.org/2000/svg"
   xmlns:svg="http://www.w3.org/2000/svg">
  <defs
     id="defs249" />
  <sodipodi:namedview
     id="namedview247"
     pagecolor="#ffffff"
     bordercolor="#666666"
     borderopacity="1.0"
     inkscape:showpageshadow="2"
     inkscape:pageopacity="0.0"
     inkscape:pagecheckerboard="0"
     inkscape:deskcolor="#d1d1d1"
     showgrid="false"
     inkscape:zoom="6.2775002"
     inkscape:cx="66.587015"
     inkscape:cy="54.002388"
     inkscape:window-width="1920"
     inkscape:window-height="1017"
     inkscape:window-x="-8"
     inkscape:window-y="-8"
     inkscape:window-maximized="1"
     inkscape:current-layer="g251" />
  <g
     inkscape:groupmode="layer"
     inkscape:label="Image"
     id="g251">
    <path
       id="path419"
       style="fill:#b3b3b3;fill-opacity:1;stroke-width:0.840378"
       d="m 22.656442,11.61391 c -4.630209,-2.54e-4 -8.3839,3.83709 -8.384023,8.570864 0.0071,0.650944 0.0867,1.298943 0.237284,1.931462 -0.570193,-0.143444 -1.153476,-0.216241 -1.738717,-0.217002 -4.2844399,-9.1e-5 -7.7577919,3.777955 -7.7580844,8.438651 0.010634,4.55671 3.3446287,8.28136 7.5317104,8.41422 v 0.02442 l 28.862693,-0.159509 c 3.058779,-0.662378 5.230407,-3.259927 5.231151,-6.257134 4.38e-4,-3.54436 -3.005977,-6.417905 -6.714856,-6.418088 -0.08511,0.0042 -0.17013,0.0099 -0.25501,0.01725 0.02434,-0.224386 0.03981,-0.449723 0.04637,-0.675437 4e-4,-4.539973 -3.529379,-8.22049 -7.883545,-8.220211 -0.443179,0.0043 -0.88522,0.04757 -1.321424,0.129338 -1.221999,-3.353436 -4.35324,-5.577736 -7.853544,-5.578822 z"
       sodipodi:nodetypes="ccccccccccccccc" />
  </g>
</svg>
