<?xml version="1.0" encoding="UTF-8" standalone="no"?>
<!-- Created with Inkscape (http://www.inkscape.org/) -->

<svg
   version="1.1"
   id="svg245"
   width="50"
   height="50"
   viewBox="0 0 50.000001 50.000001"
   sodipodi:docname="08d.svg"
   inkscape:version="1.2.1 (9c6d41e410, 2022-07-14)"
   xmlns:inkscape="http://www.inkscape.org/namespaces/inkscape"
   xmlns:sodipodi="http://sodipodi.sourceforge.net/DTD/sodipodi-0.dtd"
   xmlns="http://www.w3.org/2000/svg"
   xmlns:svg="http://www.w3.org/2000/svg">
  <defs
     id="defs249" />
  <sodipodi:namedview
     id="namedview247"
     pagecolor="#ffffff"
     bordercolor="#666666"
     borderopacity="1.0"
     inkscape:showpageshadow="2"
     inkscape:pageopacity="0.0"
     inkscape:pagecheckerboard="0"
     inkscape:deskcolor="#d1d1d1"
     showgrid="false"
     inkscape:zoom="8.877726"
     inkscape:cx="21.176594"
     inkscape:cy="21.739801"
     inkscape:window-width="1920"
     inkscape:window-height="1017"
     inkscape:window-x="-8"
     inkscape:window-y="-8"
     inkscape:window-maximized="1"
     inkscape:current-layer="g251" />
  <g
     inkscape:groupmode="layer"
     inkscape:label="Image"
     id="g251">
    <path
       id="path8319"
       style="fill:#b3b3b3;stroke:#b3b3b3;stroke-width:0.640732"
       d="m 25.652175,5.440195 c -0.660828,0 -1.19336,0.6363702 -1.19336,1.4257812 V 13.176517 L 20.687331,8.149179 C 20.370275,7.7265659 19.774007,7.6407159 19.351394,7.9577727 l -0.513672,0.3867186 c -0.422613,0.3170569 -0.50651,0.911372 -0.189453,1.3339842 l 5.683594,7.5761655 c 0.03848,0.0513 0.08107,0.09744 0.126952,0.138673 v 2.996093 l -2.771484,1.521484 -2.65039,-1.529296 c -0.0083,-0.09982 -0.03067,-0.199456 -0.07227,-0.296876 l -3.720703,-8.710937 c -0.207465,-0.485883 -0.764114,-0.709414 -1.25,-0.50195 l -0.591797,0.251952 c -0.485886,0.207464 -0.709418,0.766065 -0.501953,1.251951 L 15.429514,18.29761 9.8552959,15.080813 C 9.1716462,14.686108 8.355632,14.828831 8.0252179,15.401125 7.6948038,15.97342 7.9802409,16.750561 8.6638895,17.145267 l 5.4667975,3.15625 -6.2421879,0.753905 c -0.5245219,0.06327 -0.895304,0.536025 -0.8320315,1.060547 l 0.076172,0.638673 c 0.063273,0.524521 0.5360254,0.895303 1.0605472,0.83203 l 9.4042972,-1.134765 c 0.06492,-0.0078 0.125856,-0.02131 0.185546,-0.04102 h 0.002 l 2.207032,1.275391 0.05859,3.398437 -2.291015,1.322266 c -0.09014,-0.04233 -0.188438,-0.07137 -0.292969,-0.08398 L 8.0642843,27.190188 c -0.5245218,-0.06327 -0.9992269,0.30751 -1.0625001,0.832031 l -0.076172,0.636719 c -0.063273,0.524522 0.3075096,0.999228 0.8320315,1.0625 l 6.3925783,0.769532 -5.572266,3.218749 c -0.6836497,0.394706 -0.9671327,1.171847 -0.6367186,1.744141 0.3304141,0.572294 1.1464283,0.715018 1.8300781,0.320313 l 5.4667965,-3.154297 -2.468749,5.78125 c -0.207465,0.485886 0.01607,1.042535 0.501952,1.25 l 0.591798,0.253906 c 0.485885,0.207465 1.044487,-0.01802 1.251952,-0.503906 l 3.71875,-8.708985 c 0.02536,-0.0594 0.04387,-0.120855 0.05664,-0.181641 l 2.136719,-1.232421 3.355469,1.708984 v 2.515625 c -0.082,0.05698 -0.155385,0.126476 -0.21875,0.210938 L 18.4803,41.289798 c -0.317057,0.422612 -0.23316,1.01888 0.189453,1.335937 l 0.513672,0.384766 c 0.422613,0.317056 1.018881,0.23316 1.335938,-0.189453 l 3.863281,-5.150391 v 6.433593 c 0,0.789411 0.532531,1.423829 1.193359,1.423829 0.660828,0 1.193359,-0.634418 1.193359,-1.423829 v -6.310546 l 3.771485,5.027344 c 0.317057,0.422613 0.913324,0.50651 1.335938,0.189453 l 0.513671,-0.384766 c 0.422613,-0.317057 0.508463,-0.913325 0.191407,-1.335937 l -5.683594,-7.576172 c -0.03852,-0.05134 -0.08298,-0.09741 -0.128907,-0.138672 v -2.44336 l 3.580079,-1.964843 1.978516,1.142578 c 0.0084,0.09918 0.03094,0.198134 0.07227,0.294922 l 3.71875,8.710937 c 0.207465,0.485886 0.766067,0.709418 1.251953,0.501953 l 0.591797,-0.251953 c 0.485885,-0.207465 0.709418,-0.766067 0.501953,-1.251953 l -2.529297,-5.921875 5.572266,3.216797 c 0.68365,0.394705 1.501617,0.251982 1.832031,-0.320312 0.330414,-0.572295 0.04498,-1.349436 -0.638672,-1.744141 l -5.466796,-3.15625 6.242187,-0.753906 c 0.524521,-0.06327 0.895304,-0.536025 0.832031,-1.060547 l -0.07617,-0.638672 c -0.06327,-0.524522 -0.537978,-0.895304 -1.0625,-0.832031 l -9.40235,1.134765 c -0.06492,0.0078 -0.125856,0.02131 -0.185548,0.04102 h -0.002 l -2.28125,-1.31836 -0.05859,-3.416015 2.365235,-1.367188 c 0.0901,0.0423 0.188494,0.07334 0.292969,0.08594 l 9.402343,1.132812 c 0.524522,0.06327 0.997275,-0.307509 1.060547,-0.832031 l 0.07813,-0.638672 c 0.06327,-0.524522 -0.309462,-0.997274 -0.833984,-1.060547 l -6.392578,-0.769531 5.572266,-3.21875 c 0.683649,-0.394705 0.969085,-1.171846 0.638671,-1.74414 -0.330414,-0.572295 -1.146428,-0.715019 -1.830078,-0.320313 l -5.466797,3.154297 2.46875,-5.78125 c 0.207466,-0.485886 -0.01802,-1.042534 -0.503906,-1.249998 l -0.589805,-0.253911 c -0.485886,-0.207465 -1.044489,0.01802 -1.251954,0.503904 l -3.71875,8.708983 c -0.02536,0.0594 -0.04387,0.120855 -0.05664,0.181641 l -2.986329,1.722656 -2.642578,-1.345703 v -2.986328 c 0.08201,-0.05698 0.157337,-0.126475 0.220704,-0.210938 L 32.749831,9.6784755 C 33.066888,9.2558633 32.981038,8.6615482 32.558425,8.3444913 L 32.044753,7.9577727 C 31.62214,7.6407159 31.025872,7.7265659 30.708816,8.149179 l -3.863282,5.150384 V 6.8659762 c 0,-0.789411 -0.532531,-1.4257812 -1.193359,-1.4257812 z" />
  </g>
</svg>
