<?xml version="1.0" encoding="UTF-8" standalone="no"?>
<!-- Created with Inkscape (http://www.inkscape.org/) -->

<svg
   version="1.1"
   id="svg245"
   width="50"
   height="50"
   viewBox="0 0 50.000001 50.000001"
   sodipodi:docname="06d.svg"
   inkscape:version="1.2.1 (9c6d41e410, 2022-07-14)"
   xmlns:inkscape="http://www.inkscape.org/namespaces/inkscape"
   xmlns:sodipodi="http://sodipodi.sourceforge.net/DTD/sodipodi-0.dtd"
   xmlns="http://www.w3.org/2000/svg"
   xmlns:svg="http://www.w3.org/2000/svg">
  <defs
     id="defs249" />
  <sodipodi:namedview
     id="namedview247"
     pagecolor="#ffffff"
     bordercolor="#666666"
     borderopacity="1.0"
     inkscape:showpageshadow="2"
     inkscape:pageopacity="0.0"
     inkscape:pagecheckerboard="0"
     inkscape:deskcolor="#d1d1d1"
     showgrid="false"
     inkscape:zoom="4.438863"
     inkscape:cx="-9.9124483"
     inkscape:cy="18.247916"
     inkscape:window-width="1920"
     inkscape:window-height="1017"
     inkscape:window-x="-8"
     inkscape:window-y="-8"
     inkscape:window-maximized="1"
     inkscape:current-layer="g251" />
  <g
     inkscape:groupmode="layer"
     inkscape:label="Image"
     id="g251">
    <circle
       style="fill:#ee7c15;stroke-width:0.497327"
       id="path255"
       cx="33.132698"
       cy="16.886532"
       r="16" />
    <g
       id="g5576"
       transform="rotate(-14.043783,7.0542904,50.744916)">
      <ellipse
         style="fill:#b3b3b3"
         id="path5448-15"
         cx="40.929951"
         cy="19.576366"
         rx="0.87614495"
         ry="1.4336917"
         transform="rotate(30.260426)" />
      <ellipse
         style="fill:#b3b3b3"
         id="path5448-1-0"
         cx="40.809692"
         cy="21.583031"
         rx="0.87614495"
         ry="1.4336917"
         transform="rotate(30.260426)" />
      <ellipse
         style="fill:#b3b3b3"
         id="path5448-1-4-3"
         cx="40.752605"
         cy="25.120481"
         rx="0.87614495"
         ry="1.4336917"
         transform="rotate(30.260426)" />
      <ellipse
         style="fill:#b3b3b3"
         id="path5448-1-4-4-8"
         cx="40.497795"
         cy="29.741535"
         rx="0.87614495"
         ry="1.4336917"
         transform="rotate(30.260426)" />
      <ellipse
         style="fill:#b3b3b3"
         id="path5448-1-4-5-1"
         cx="40.005047"
         cy="34.270878"
         rx="0.87614495"
         ry="1.4336917"
         transform="rotate(30.260426)" />
    </g>
    <g
       id="g5612"
       transform="rotate(-22.064831,16.823517,38.58094)">
      <ellipse
         style="fill:#b3b3b3"
         id="path5448-6"
         cx="45.708519"
         cy="17.572247"
         rx="0.87614495"
         ry="1.4336917"
         transform="rotate(30.260426)" />
      <ellipse
         style="fill:#b3b3b3"
         id="path5448-1-6"
         cx="45.588261"
         cy="19.578911"
         rx="0.87614495"
         ry="1.4336917"
         transform="rotate(30.260426)" />
      <ellipse
         style="fill:#b3b3b3"
         id="path5448-1-4-1"
         cx="45.531174"
         cy="23.116362"
         rx="0.87614495"
         ry="1.4336917"
         transform="rotate(30.260426)" />
      <ellipse
         style="fill:#b3b3b3"
         id="path5448-1-4-4-89"
         cx="45.276363"
         cy="27.737415"
         rx="0.87614495"
         ry="1.4336917"
         transform="rotate(30.260426)" />
      <ellipse
         style="fill:#b3b3b3"
         id="path5448-1-4-5-6"
         cx="44.783615"
         cy="32.266758"
         rx="0.87614495"
         ry="1.4336917"
         transform="rotate(30.260426)" />
    </g>
    <path
       id="path419"
       style="fill:#b3b3b3;fill-opacity:1;stroke-width:0.840378"
       d="m 18.355367,5.8791434 c -4.630209,-2.54e-4 -8.3839001,3.83709 -8.3840231,8.5708636 0.0071,0.650944 0.0867,1.298943 0.2372841,1.931462 -0.5701929,-0.143444 -1.1534759,-0.216241 -1.7387169,-0.217002 -4.28444,-9.1e-5 -7.75779206,3.777955 -7.75808506,8.438651 0.01063,4.55671 3.34462906,8.28136 7.53171106,8.41422 v 0.02442 L 37.10623,32.882249 c 3.058779,-0.662378 5.230407,-3.259927 5.231151,-6.257134 4.38e-4,-3.54436 -3.005977,-6.417905 -6.714856,-6.418088 -0.08511,0.0042 -0.17013,0.0099 -0.25501,0.01725 0.02434,-0.224386 0.03981,-0.449723 0.04637,-0.675437 4e-4,-4.539973 -3.529379,-8.22049 -7.883545,-8.220211 -0.443179,0.0043 -0.88522,0.04757 -1.321424,0.129338 -1.221999,-3.3534356 -4.35324,-5.5777356 -7.853544,-5.5788216 z"
       sodipodi:nodetypes="ccccccccccccccc" />
    <g
       id="g5619"
       transform="translate(0.22528292,-0.67584875)">
      <ellipse
         style="fill:#b3b3b3"
         id="path5448"
         cx="30.021133"
         cy="22.690308"
         rx="0.87614495"
         ry="1.4336917"
         transform="rotate(30.260426)" />
      <ellipse
         style="fill:#b3b3b3"
         id="path5448-1"
         cx="29.900875"
         cy="24.696972"
         rx="0.87614495"
         ry="1.4336917"
         transform="rotate(30.260426)" />
      <ellipse
         style="fill:#b3b3b3"
         id="path5448-1-4"
         cx="29.843788"
         cy="28.234423"
         rx="0.87614495"
         ry="1.4336917"
         transform="rotate(30.260426)" />
      <ellipse
         style="fill:#b3b3b3"
         id="path5448-1-4-4"
         cx="29.588978"
         cy="32.855476"
         rx="0.87614495"
         ry="1.4336917"
         transform="rotate(30.260426)" />
      <ellipse
         style="fill:#b3b3b3"
         id="path5448-1-4-5"
         cx="29.09623"
         cy="37.384819"
         rx="0.87614495"
         ry="1.4336917"
         transform="rotate(30.260426)" />
    </g>
  </g>
</svg>
